<?xml version="1.0" standalone="no"?>
<!DOCTYPE svg PUBLIC "-//W3C//DTD SVG 20010904//EN"
 "http://www.w3.org/TR/2001/REC-SVG-20010904/DTD/svg10.dtd">
<svg version="1.0" xmlns="http://www.w3.org/2000/svg"
 width="140.000000pt" height="136.000000pt" viewBox="0 0 140.000000 136.000000"
 preserveAspectRatio="xMidYMid meet">

<g transform="translate(0.000000,136.000000) scale(0.100000,-0.100000)"
fill="#000000" stroke="none">
<path d="M717 1222 c-42 -45 -77 -100 -77 -119 0 -5 21 -14 46 -21 26 -7 59
-22 74 -32 16 -11 31 -20 34 -20 8 0 26 71 26 106 0 46 -29 134 -44 134 -7 0
-34 -22 -59 -48z"/>
<path d="M246 1113 c11 -51 48 -117 87 -160 22 -24 43 -43 48 -43 5 0 16 17
24 38 9 20 29 51 46 68 l30 31 -39 25 c-41 28 -104 51 -165 62 -37 7 -38 7
-31 -21z"/>
<path d="M560 1057 c-81 -28 -123 -70 -149 -149 -15 -45 -47 -88 -67 -88 -8 0
-14 -5 -14 -11 0 -16 86 -50 157 -62 42 -7 63 -16 63 -25 0 -8 -14 -55 -31
-105 -54 -155 -38 -269 51 -370 34 -39 117 -94 126 -84 4 3 -6 18 -20 34 -42
45 -59 102 -54 185 3 63 11 87 52 173 27 55 55 120 63 145 l13 45 -4 -61 c-3
-43 -16 -90 -44 -155 -22 -52 -43 -115 -47 -141 -16 -105 54 -224 147 -249
161 -43 347 113 351 294 3 90 -8 125 -58 202 -62 94 -61 165 1 165 30 0 54
-26 54 -58 1 -26 1 -27 16 -7 11 14 14 34 11 63 -12 113 -159 157 -231 71 -47
-55 -29 -128 54 -224 22 -26 50 -65 61 -87 46 -90 31 -218 -35 -293 l-34 -40
20 60 c38 112 4 215 -105 327 -68 68 -111 134 -121 183 -6 26 -1 35 25 60 31
30 89 112 89 127 0 4 -13 5 -29 2 -21 -5 -47 4 -104 35 -83 46 -150 58 -207
38z m178 -93 c27 -18 27 -61 1 -77 -50 -31 -105 38 -59 75 27 22 30 22 58 2z
m-184 -76 c22 -31 20 -45 -9 -64 -36 -24 -75 -6 -75 34 0 15 5 33 12 40 19 19
55 14 72 -10z"/>
</g>
</svg>
