<?xml version="1.0" encoding="UTF-8"?>
<svg id="logosandtypes_com" data-name="logosandtypes com" xmlns="http://www.w3.org/2000/svg" xmlns:xlink="http://www.w3.org/1999/xlink" viewBox="0 0 150 150">
  <defs>
    <style>
      .cls-1 {
        fill: none;
      }

      .cls-2 {
        fill: url(#linear-gradient);
      }
    </style>
    <linearGradient id="linear-gradient" x1="-691.34" y1="526.94" x2="-659.33" y2="526.94" gradientTransform="translate(2992.72 2351.83) scale(4.32 -4.32)" gradientUnits="userSpaceOnUse">
      <stop offset="0" stop-color="#3ef2c9"/>
      <stop offset="1" stop-color="#1cdfd7"/>
    </linearGradient>
  </defs>
  <g id="Layer_2" data-name="Layer 2">
    <path id="Layer_3" data-name="Layer 3" class="cls-1" d="M0,0H150V150H0V0Z"/>
  </g>
  <path class="cls-2" d="M78.46,133.36c-1.97-1.55-3.43-3.74-3.98-6.34L57.86,47.93l-15.05,15.9c15.12,.25,15.42,21.28,.29,21.91,0,0-25.99,0-25.99,0-9.42,.16-15.05-11.29-8.28-18.38,0,0,47.23-49.88,47.23-49.88,5.95-6.7,17.7-3.76,19.47,5.07,0,0,16.61,79.1,16.61,79.1l15.06-15.91c-15.13-.24-15.44-21.29-.3-21.92,0,0,25.98,0,25.98,0,9.62-.12,14.96,11.47,8.28,18.39,0,0-47.2,49.85-47.2,49.85-3.88,4.38-10.95,4.97-15.51,1.29Z"/>
</svg>